<?xml version="1.0" encoding="utf-8"?>
<!-- Generator: Adobe Illustrator 21.0.0, SVG Export Plug-In . SVG Version: 6.00 Build 0)  -->
<svg version="1.1" id="Layer_1" xmlns="http://www.w3.org/2000/svg" xmlns:xlink="http://www.w3.org/1999/xlink" x="0px" y="0px"
	 viewBox="0 0 497.3 130.1" style="enable-background:new 0 0 497.3 130.1;" xml:space="preserve">
<style type="text/css">
	.st0{fill:#EF3E24;}
	.st1{fill:#92C4E9;}
</style>
<g>
	<path class="st0" d="M88.9,65.1c0-17.9-14.5-32.4-32.4-32.4c-17.9,0-32.4,14.6-32.4,32.4c0,17.9,14.5,32.4,32.4,32.4h0l19.8-0.2
		l0.1-33.5l-0.1,0c-0.5-10.2-9-18.4-19.4-18.4c-10.7,0-19.4,8.6-19.4,19.3c-0.1,10.3,8,18.8,18.1,19.5c0.4,0,9.7,0,9.7,0
		c0-2.1,0.1-4.6-2.4-5.8c-1.5-0.7-4.5-0.4-7.7-0.6c-6.6-0.6-11.6-6.6-11.3-13.5c0.3-6.8,5.8-12.3,12.6-12.6
		c7.5-0.3,13.6,5.7,13.6,13.1h0L70.1,91l-13.6,0.1c-14.4,0-26.1-11.8-26.1-26.2c0-14.3,11.7-26,26.1-26c14.4,0,26.2,11.7,26.2,26.1
		L82.7,91c-0.2,4.9,0.9,6.5,6.3,6.3h0L88.9,65.1z"/>
	<g>
		<path class="st1" d="M137.4,35.3c-0.4-1.2-1.7-2-3.1-2c-1.3,0-2.6,0.8-3.1,2l-21.9,58.4c-0.3,0.8-0.3,1.7,0.1,2.5
			c0.3,0.8,1,1.4,1.7,1.7l0.2,0.1h0.2c0.1,0,0.2,0,0.3,0c0.2,0,0.4,0,0.5,0c1.3,0,2.5-0.8,3-2.1l5.3-14.2H148l5.3,14.2
			c0.5,1.2,1.7,2.1,3,2.1c0.2,0,0.4,0,0.5-0.1c0.1,0,0.2,0,0.3,0h0.2l0.2-0.1c1.6-0.7,2.4-2.6,1.7-4.2L137.4,35.3z M145.6,75.3H123
			l11.3-30L145.6,75.3z"/>
		<path class="st1" d="M206.9,91.6h-29.1V36.2c0-1.7-1.5-3.2-3.2-3.2c-1.7,0-3.2,1.4-3.2,3.2v58.7c0,1.7,1.4,3.2,3.2,3.2h32.4
			c1.8,0,3.2-1.4,3.2-3.2C210.1,93,208.7,91.6,206.9,91.6z"/>
		<path class="st1" d="M257.6,39.4c1.8,0,3.2-1.4,3.2-3.2c0-1.8-1.4-3.2-3.2-3.2h-32.4c-1.7,0-3.2,1.4-3.2,3.2v58.7
			c0,1.7,1.2,3,3,3.2h32.6c1.8,0,3.2-1.4,3.2-3.2c0-1.9-1.4-3.2-3.2-3.2h-29.1V68.8h25.4c1.7,0,3.2-1.4,3.2-3.2
			c0-1.8-1.4-3.2-3.2-3.2h-25.4V39.4H257.6z"/>
		<path class="st1" d="M329.8,34.8c-0.2-0.4-0.5-0.6-0.8-0.9l-0.2-0.1c-1.5-1-3.5-0.6-4.4,0.8l-21.5,29.9l-21.6-29.9
			c-1-1.4-2.9-1.7-4.4-0.8l-0.1,0.1c-0.1,0.1-0.2,0.2-0.3,0.3c-0.7,0.6-1.1,1.4-1.1,2.4v58.3c0,1.7,1.5,3.2,3.2,3.2
			c1.7,0,3.2-1.4,3.2-3.2V46.2l18.3,25.3c0.6,1,1.5,1.5,2.7,1.5h0.2c1.1,0,2.1-0.5,2.6-1.4L324,46.1v48.7c0,1.8,1.4,3.2,3.2,3.2
			c1.7,0,3.2-1.4,3.2-3.2V36.5c0-0.5-0.2-1-0.5-1.6L329.8,34.8z"/>
		<path class="st1" d="M374.4,61.7c3.3-3.2,5.1-7.4,5.1-11.9c0-9.2-7.5-16.7-16.7-16.7h-14c-1.7,0-3.2,1.4-3.2,3.2v58.7
			c0,1.7,1.4,3.2,3.2,3.2h18c10.5,0,19-8.5,19-19C385.8,71.5,381.3,64.7,374.4,61.7z M352.1,59.9V39.4h10.8
			c5.7,0,10.2,4.6,10.2,10.3c0,5.6-4.6,10.2-10.2,10.2H352.1z M379.4,79c-0.1,7.1-5.6,12.6-12.6,12.6h-14.7V66.4h14.7
			C373.7,66.4,379.3,72.1,379.4,79z"/>
		<path class="st1" d="M402,33c-1.7,0-3.2,1.4-3.2,3.2v58.7c0,1.7,1.4,3.2,3.2,3.2c1.8,0,3.2-1.4,3.2-3.2V36.2
			C405.3,34.4,403.8,33,402,33z"/>
		<path class="st1" d="M470.5,85.1c-0.9-0.2-1.9,0-2.7,0.5l-0.1,0.1c-4.5,3.8-10.5,5.9-16.8,5.9c-15.1,0-27.3-11.8-27.3-26.4
			c0-14.7,12.3-26.7,27.3-26.7c6.2,0,12.1,2,17,5.9c0.7,0.5,1.6,0.8,2.4,0.6c0.8-0.1,1.5-0.6,2-1.2c0.5-0.6,0.8-1.3,0.7-2.1
			c0-1-0.5-1.8-1.3-2.5c-6-4.6-13.4-7.1-21-7.1h0c-18.9,0.1-33.8,14.6-33.8,33.1c0,18.1,15.1,32.8,33.8,32.8c7.6,0,15.1-2.5,20.9-7
			c0.7-0.5,1.2-1.4,1.3-2.4c0-0.8-0.2-1.6-0.8-2.2C471.9,85.8,471.3,85.3,470.5,85.1z"/>
	</g>
</g>
</svg>
