<?xml version="1.0" encoding="UTF-8"?>
<svg width="226px" height="54px" viewBox="0 0 226 54" version="1.1" xmlns="http://www.w3.org/2000/svg" xmlns:xlink="http://www.w3.org/1999/xlink">
    <title>Blackmill</title>
    <g id="Page-1" stroke="none" stroke-width="1" fill="none" fill-rule="evenodd">
        <path d="M224.7729,48.2891 C225.1059,48.2891 225.3769,48.5601 225.3769,48.8931 L225.3769,53.1851 C225.3769,53.5181 225.1059,53.7891 224.7729,53.7891 L0.6449,53.7931 C0.3109,53.7931 0.0399,53.5231 0.0399,53.1891 L0.0399,48.8931 C0.0399,48.5601 0.3109,48.2891 0.6449,48.2891 L27.7919,48.2891 C28.1259,48.2891 28.3969,48.0181 28.3969,47.6851 L28.3949,42.7311 C28.3949,42.3971 28.6649,42.1261 28.9989,42.1261 L33.2939,42.1261 C33.6279,42.1261 33.8989,42.3971 33.8989,42.7311 L33.8989,47.6851 C33.8989,48.0181 34.1689,48.2891 34.5029,48.2891 L69.5919,48.2891 C69.9259,48.2891 70.1969,48.0181 70.1969,47.6851 L70.1949,42.7311 C70.1949,42.3971 70.4649,42.1261 70.7989,42.1261 L75.0949,42.1261 C75.4289,42.1261 75.6989,42.3971 75.6989,42.7311 L75.6989,47.6851 C75.6989,48.0181 75.9699,48.2891 76.3039,48.2891 L120.9709,48.2891 C121.3049,48.2891 121.5759,48.0181 121.5759,47.6851 L121.5739,42.7311 C121.5739,42.3971 121.8439,42.1261 122.1779,42.1261 L126.4739,42.1261 C126.8079,42.1261 127.0779,42.3971 127.0779,42.7311 L127.0779,47.6851 C127.0779,48.0181 127.3489,48.2891 127.6829,48.2891 L168.2279,48.2891 C168.5619,48.2891 168.8319,48.0181 168.8319,47.6851 L168.8289,1.8131 C168.8289,1.4791 169.0989,1.2081 169.4329,1.2081 L173.7289,1.2081 C174.0619,1.2081 174.3329,1.4791 174.3329,1.8131 L174.3329,47.6851 C174.3329,48.0181 174.6039,48.2891 174.9369,48.2891 L224.7729,48.2891 Z M5.54,30.5582 C5.54,30.8922 5.811,31.1622 6.144,31.1622 L8.591,31.1622 C10.891,31.1622 12.599,30.8212 13.716,30.1372 C14.832,29.4542 15.391,28.0302 15.391,25.8632 C15.391,22.5302 13.273,20.8632 9.04,20.8632 L6.144,20.8632 C5.811,20.8632 5.54,21.1332 5.54,21.4672 L5.54,30.5582 Z M5.54,14.9582 C5.54,15.2922 5.811,15.5632 6.144,15.5632 L7.94,15.5632 C9.841,15.5632 11.24,15.2122 12.141,14.5122 C13.04,13.8132 13.49,12.6132 13.49,10.9122 C13.49,9.3462 13.073,8.2542 12.24,7.6372 C11.407,7.0212 10.141,6.7122 8.44,6.7122 L6.144,6.7122 C5.811,6.7122 5.54,6.9832 5.54,7.3172 L5.54,14.9582 Z M10.99,36.2122 L0.644,36.2122 C0.311,36.2122 0.04,35.9422 0.04,35.6082 L0.04,1.8172 C0.04,1.4832 0.311,1.2122 0.644,1.2122 L10.24,1.2122 C13.007,1.2122 15.307,1.9802 17.141,3.5122 C18.974,5.0462 19.891,7.2302 19.891,10.0632 C19.891,13.1962 18.79,15.5122 16.591,17.0122 C16.557,17.0462 16.54,17.0792 16.54,17.1132 L16.54,17.1622 C18.007,17.8292 19.231,18.8962 20.216,20.3632 C21.198,21.8292 21.69,23.6962 21.69,25.9622 C21.69,27.2302 21.507,28.4382 21.141,29.5872 C20.773,30.7382 20.19,31.8212 19.391,32.8372 C18.591,33.8552 17.474,34.6712 16.04,35.2872 C14.606,35.9052 12.923,36.2122 10.99,36.2122 Z M45.8408,36.2125 L28.9988,36.2125 C28.6648,36.2125 28.3948,35.9415 28.3948,35.6085 L28.3948,1.8165 C28.3948,1.4835 28.6648,1.2125 28.9988,1.2125 L33.2898,1.2125 C33.6238,1.2125 33.8948,1.4835 33.8948,1.8165 L33.8948,30.5585 C33.8948,30.8925 34.1648,31.1625 34.4988,31.1625 L45.8408,31.1625 C46.1748,31.1625 46.4448,31.4335 46.4448,31.7675 L46.4448,35.6085 C46.4448,35.9415 46.1748,36.2125 45.8408,36.2125 Z M65.5996,20.4537 L63.5606,12.7287 C63.4006,12.1217 62.5356,12.1317 62.3886,12.7417 L60.5286,20.4667 C60.4376,20.8467 60.7256,21.2127 61.1166,21.2127 L65.0156,21.2127 C65.4116,21.2127 65.7006,20.8367 65.5996,20.4537 Z M74.9226,36.2127 L69.6336,36.2127 C69.3506,36.2127 69.1056,36.0167 69.0436,35.7407 L67.2046,27.5357 C67.1436,27.2597 66.8986,27.0627 66.6156,27.0627 L59.5386,27.0627 C59.2536,27.0627 59.0076,27.2627 58.9476,27.5417 L57.2016,35.7337 C57.1416,36.0127 56.8956,36.2127 56.6106,36.2127 L51.6616,36.2127 C51.2716,36.2127 50.9846,35.8497 51.0736,35.4707 L58.9906,1.6787 C59.0546,1.4057 59.2976,1.2127 59.5786,1.2127 L66.3786,1.2127 C66.6556,1.2127 66.8966,1.4007 66.9646,1.6687 L75.5086,35.4597 C75.6056,35.8417 75.3166,36.2127 74.9226,36.2127 Z M97.7939,29.8628 L98.5639,34.5668 C98.6099,34.8538 98.4449,35.1408 98.1709,35.2408 C96.6949,35.7808 95.2189,36.1718 93.7439,36.4128 C92.6769,36.6128 91.6099,36.7128 90.5439,36.7128 C90.0109,36.7128 89.4609,36.6788 88.8949,36.6128 C87.2939,36.4788 85.8859,36.0878 84.6689,35.4378 C83.4519,34.7878 82.4689,33.7548 81.7189,32.3378 C80.9689,30.9218 80.5939,29.1628 80.5939,27.0628 L80.5939,11.0118 C80.5939,8.4798 80.9519,6.5628 81.6689,5.2618 C82.3859,3.9628 83.4769,2.8628 84.9439,1.9628 C86.4439,1.1298 88.2269,0.7128 90.2939,0.7128 L90.9439,0.7128 C93.0909,0.8048 95.0829,1.2778 96.9209,2.1328 C97.1939,2.2598 97.3279,2.5768 97.2379,2.8648 L96.0249,6.7768 C95.9249,7.0988 95.5859,7.2658 95.2649,7.1648 C93.8899,6.7298 92.3989,6.5118 90.7939,6.5118 C90.7709,6.5118 90.7489,6.5118 90.7259,6.5128 C88.1299,6.5358 86.0939,8.7708 86.0939,11.3668 L86.0939,26.9628 C86.0939,27.5628 86.1599,28.1048 86.2939,28.5878 C86.4269,29.0708 86.6449,29.4628 86.9439,29.7618 C87.2439,30.0628 87.5439,30.3298 87.8439,30.5628 C88.1449,30.7968 88.5609,30.9458 89.0939,31.0118 C89.6269,31.0798 90.0769,31.1368 90.4439,31.1878 C90.8109,31.2378 91.3189,31.2128 91.9689,31.1128 C92.6189,31.0118 93.1269,30.9378 93.4939,30.8868 C93.8599,30.8378 94.3859,30.7298 95.0689,30.5628 C95.7519,30.3958 96.2269,30.2798 96.4939,30.2128 C96.7609,30.1458 97.1939,30.0298 97.7939,29.8628 Z M125.9229,36.2125 L120.5479,36.2125 C120.3479,36.2125 120.1609,36.1135 120.0479,35.9475 L110.7779,22.3135 L110.4289,22.8135 L110.4289,35.6085 C110.4289,35.9415 110.1579,36.2125 109.8239,36.2125 L105.1329,36.2125 C104.7989,36.2125 104.5279,35.9415 104.5279,35.6085 L104.5279,1.7675 C104.5279,1.4335 104.7989,1.1625 105.1329,1.1625 L109.8239,1.1625 C110.1579,1.1625 110.4289,1.4335 110.4289,1.7675 L110.4289,11.2295 C110.4289,11.8265 111.2019,12.0625 111.5349,11.5665 L118.3489,1.4295 C118.4609,1.2625 118.6489,1.1625 118.8499,1.1625 L123.9829,1.1625 C124.4689,1.1625 124.7559,1.7065 124.4819,2.1085 L114.2629,17.0685 C114.1219,17.2755 114.1229,17.5485 114.2659,17.7545 L126.4189,35.2635 C126.6969,35.6645 126.4109,36.2125 125.9229,36.2125 Z M159.1143,36.2125 L154.8233,36.2125 C154.4893,36.2125 154.2183,35.9415 154.2183,35.6085 L154.2183,21.6295 C154.2183,20.9385 153.2463,20.7875 153.0383,21.4465 L148.5023,35.7905 C148.4233,36.0415 148.1903,36.2125 147.9263,36.2125 L144.6143,36.2125 C144.3493,36.2125 144.1153,36.0405 144.0363,35.7875 L139.6003,21.5535 C139.3943,20.8925 138.4193,21.0405 138.4193,21.7335 L138.4193,35.6085 C138.4193,35.9415 138.1483,36.2125 137.8143,36.2125 L133.5233,36.2125 C133.1893,36.2125 132.9193,35.9415 132.9193,35.6085 L132.9193,1.8165 C132.9193,1.4835 133.1893,1.2125 133.5233,1.2125 L137.9853,1.2125 C138.2443,1.2125 138.4743,1.3775 138.5583,1.6225 L145.6993,22.6855 C145.8853,23.2315 146.6563,23.2335 146.8433,22.6875 L154.0783,1.6205 C154.1623,1.3765 154.3923,1.2125 154.6503,1.2125 L159.1143,1.2125 C159.4483,1.2125 159.7183,1.4835 159.7183,1.8165 L159.7183,35.6085 C159.7183,35.9415 159.4483,36.2125 159.1143,36.2125 Z M200.9326,36.2125 L184.0916,36.2125 C183.7576,36.2125 183.4876,35.9415 183.4876,35.6085 L183.4876,1.8165 C183.4876,1.4835 183.7576,1.2125 184.0916,1.2125 L188.3826,1.2125 C188.7166,1.2125 188.9876,1.4835 188.9876,1.8165 L188.9876,30.5585 C188.9876,30.8925 189.2576,31.1625 189.5916,31.1625 L200.9326,31.1625 C201.2666,31.1625 201.5366,31.4335 201.5366,31.7675 L201.5366,35.6085 C201.5366,35.9415 201.2666,36.2125 200.9326,36.2125 Z M224.7725,36.2125 L207.9315,36.2125 C207.5975,36.2125 207.3275,35.9415 207.3275,35.6085 L207.3275,1.8165 C207.3275,1.4835 207.5975,1.2125 207.9315,1.2125 L212.2225,1.2125 C212.5565,1.2125 212.8275,1.4835 212.8275,1.8165 L212.8275,30.5585 C212.8275,30.8925 213.0975,31.1625 213.4315,31.1625 L224.7725,31.1625 C225.1065,31.1625 225.3765,31.4335 225.3765,31.7675 L225.3765,35.6085 C225.3765,35.9415 225.1065,36.2125 224.7725,36.2125 Z" id="blackmill-logo" fill="#000000"></path>
    </g>
</svg>