<svg xmlns="http://www.w3.org/2000/svg" width="270" height="71" viewBox="0 0 270 71">
  <path fill="#000" fillRule="evenodd" d="M0.465820312,28.5957031 L12.7568359,28.5957031 C18.4586874,28.5957031 22.5792516,29.426424 25.1186523,31.0878906 C27.6580531,32.7493573 28.9277344,35.37368 28.9277344,38.9609375 C28.9277344,41.3776163 28.3046937,43.3883383 27.0585938,44.9931641 C25.8124938,46.5979898 24.0188919,47.6080708 21.6777344,48.0234375 L21.6777344,48.3066406 C24.585301,48.8541694 26.7234632,49.9350505 28.0922852,51.5493164 C29.4611071,53.1635823 30.1455078,55.3489446 30.1455078,58.1054688 C30.1455078,61.8248884 28.8475065,64.7371314 26.2514648,66.8422852 C23.6554232,68.9474389 20.0446195,70 15.4189453,70 L0.465820312,70 L0.465820312,28.5957031 Z M7.234375,45.7011719 L13.7480469,45.7011719 C16.5800923,45.7011719 18.6474544,45.2527714 19.9501953,44.355957 C21.2529362,43.4591427 21.9042969,41.9345811 21.9042969,39.7822266 C21.9042969,37.8375554 21.2010161,36.4309939 19.7944336,35.5625 C18.387851,34.6940061 16.1552887,34.2597656 13.0966797,34.2597656 L7.234375,34.2597656 L7.234375,45.7011719 Z M7.234375,51.1953125 L7.234375,64.3076172 L14.4277344,64.3076172 C17.2597798,64.3076172 19.397942,63.7648166 20.8422852,62.6791992 C22.2866283,61.5935818 23.0087891,59.88022 23.0087891,57.5390625 C23.0087891,55.386708 22.2724683,53.7913463 20.7998047,52.7529297 C19.3271411,51.714513 17.0898588,51.1953125 14.0878906,51.1953125 L7.234375,51.1953125 Z M45.8175328,70 L39.1622593,70 L39.1622593,25.9335938 L45.8175328,25.9335938 L45.8175328,70 Z M76.0461984,70 L74.7151437,65.6386719 L74.4885812,65.6386719 C72.978157,67.5455825 71.4583154,68.8435838 69.9290109,69.5327148 C68.3997063,70.2218459 66.4361843,70.5664062 64.0383859,70.5664062 C60.9608965,70.5664062 58.558414,69.7356854 56.8308663,68.0742188 C55.1033186,66.4127521 54.2395577,64.0621897 54.2395577,61.0224609 C54.2395577,57.7939292 55.438439,55.3584067 57.8362374,53.7158203 C60.2340359,52.073234 63.8873197,51.176433 68.7961984,51.0253906 L74.2053781,50.8554688 L74.2053781,49.1845703 C74.2053781,47.1832582 73.7380976,45.6870167 72.8035226,44.6958008 C71.8689476,43.7045849 70.4199061,43.2089844 68.4563546,43.2089844 C66.8515289,43.2089844 65.3128073,43.4449846 63.8401437,43.9169922 C62.3674801,44.3889998 60.9514786,44.9459603 59.5920968,45.5878906 L57.4397531,40.8300781 C59.1389803,39.9427039 60.9986622,39.2677432 63.0188546,38.8051758 C65.039047,38.3426084 66.945929,38.1113281 68.7395577,38.1113281 C72.7233016,38.1113281 75.7299447,38.979809 77.7595773,40.7167969 C79.7892098,42.4537847 80.8040109,45.1819475 80.8040109,48.9013672 L80.8040109,70 L76.0461984,70 Z M66.134089,65.46875 C68.5507677,65.46875 70.4906897,64.7937893 71.9539132,63.4438477 C73.4171367,62.093906 74.1487374,60.2011841 74.1487374,57.765625 L74.1487374,55.046875 L70.1272531,55.2167969 C66.9931228,55.3300787 64.7133604,55.8539992 63.2878976,56.7885742 C61.8624347,57.7231492 61.149714,59.1533107 61.149714,61.0791016 C61.149714,62.476244 61.5650744,63.5571251 62.3958077,64.3217773 C63.2265411,65.0864296 64.4726224,65.46875 66.134089,65.46875 Z M103.839317,70.5664062 C99.1003611,70.5664062 95.4989974,69.1834448 93.0351179,66.4174805 C90.5712384,63.6515161 89.3393171,59.681992 89.3393171,54.5087891 C89.3393171,49.2411846 90.6278784,45.1914204 93.2050397,42.359375 C95.7822011,39.5273296 99.5062849,38.1113281 104.377403,38.1113281 C107.681456,38.1113281 110.655059,38.7249288 113.298301,39.9521484 L111.287559,45.3046875 C108.474394,44.2096299 106.152152,43.6621094 104.320762,43.6621094 C98.9021155,43.6621094 96.1928327,47.2587531 96.1928327,54.4521484 C96.1928327,57.9638847 96.8677934,60.6023675 98.2177351,62.3676758 C99.5676767,64.1329841 101.545359,65.015625 104.150841,65.015625 C107.115048,65.015625 109.918731,64.2793042 112.561973,62.8066406 L112.561973,68.6123047 C111.372514,69.3108759 110.102833,69.8111964 108.752891,70.1132812 C107.40295,70.4153661 105.765108,70.5664062 103.839317,70.5664062 Z M127.46935,53.4609375 L131.235951,48.7597656 L140.694936,38.6777344 L148.36974,38.6777344 L135.767201,52.1298828 L149.162709,70 L141.346303,70 L131.292592,56.2646484 L127.639272,59.2666016 L127.639272,70 L121.040639,70 L121.040639,25.9335938 L127.639272,25.9335938 L127.639272,47.4287109 L127.299428,53.4609375 L127.46935,53.4609375 Z M181.71364,70 L175.030047,70 L175.030047,50.6855469 C175.030047,48.2877484 174.576926,46.4988666 173.670672,45.3188477 C172.764417,44.1388287 171.348416,43.5488281 169.422625,43.5488281 C166.854904,43.5488281 164.971622,44.384269 163.772722,46.0551758 C162.573823,47.7260826 161.974383,50.5061654 161.974383,54.3955078 L161.974383,70 L155.319109,70 L155.319109,38.6777344 L160.530047,38.6777344 L161.464617,42.7841797 L161.804461,42.7841797 C162.672955,41.2926358 163.933196,40.1409546 165.585222,39.3291016 C167.237249,38.5172485 169.054451,38.1113281 171.036883,38.1113281 C175.85136,38.1113281 179.042083,39.7538898 180.609148,43.0390625 L181.062273,43.0390625 C181.987408,41.4908777 183.290129,40.2825564 184.970476,39.4140625 C186.650823,38.5455686 188.576585,38.1113281 190.74782,38.1113281 C194.48612,38.1113281 197.209563,39.0553291 198.91823,40.9433594 C200.626898,42.8313896 201.481219,45.7105926 201.481219,49.5810547 L201.481219,70 L194.825945,70 L194.825945,50.6855469 C194.825945,48.2877484 194.368105,46.4988666 193.45241,45.3188477 C192.536715,44.1388287 191.115994,43.5488281 189.190203,43.5488281 C186.603601,43.5488281 184.71088,44.355949 183.51198,45.9702148 C182.313081,47.5844807 181.71364,50.0624833 181.71364,53.4042969 L181.71364,70 Z M212,38 L218.625,38 L218.625,70 L212,70 L212,38 Z M229.196429,32 L235.821429,32 L235.821429,70 L229.196429,70 L229.196429,32 Z M246.392857,27 L253.017857,27 L253.017857,70 L246.392857,70 L246.392857,27 Z M246.392857,15.972973 L253.017857,15.972973 L253.017857,22.5945946 L246.392857,22.5945946 L246.392857,15.972973 Z M256,8 L261.6,8 L261.6,13.5999999 L256,13.5999999 L256,8 Z M265,0 L270,0 L270,5 L265,5 L265,0 Z"/>
</svg>
