<svg xmlns="http://www.w3.org/2000/svg" id="Layer_1" viewBox="151 -39.9 351 128.9"><style>.st1{fill:#f16638}.st2{fill:#000</style><path d="M423.3 89h-1.1c-.8 0-1.5 0-2.3-.1l-1.2-.1c-5.9-.4-11.8-1.5-17.5-3.4-.4-.1-.7-.3-1.1-.4-.1-.1-.9-.3-1-.4l-1-.4c-.3-.1-.5-.2-.8-.3l-.3-.1c-.8-.3-1.6-.7-2.3-1l-1.2-.6-.3-.2c-9.2-4.5-17.6-11.1-24.1-19.2-.4-.5-.8-1.1-1.3-1.6-.2-.3-.4-.6-.7-.9l-.2-.3c-.4-.6-.8-1.1-1.2-1.7-.4-.5-.7-1.6-1-1.6h8.8c1.3 0 3.1.8 3.8 1.7 6.3 7.5 14.4 13.3 23.5 17l.3.2h.4c.4.1.7.3 1.1.4.4.2.9.3 1.3.5.7.2 1.4.5 2.1.7 4.6 1.4 9.4 2.2 14.3 2.4h4.5c.8 0 1.6-.1 2.3-.1 5-.3 9.9-1.3 14.5-2.8l1-.3c.4-.1.8-.3 1.2-.4.4-.1.8-.3 1.2-.5l.4-.2c.3-.1.7-.3 1-.4 8.6-3.6 16.4-9.3 22.4-16.5.8-.9 2.6-1.7 3.8-1.7h8.8c-.3 0-.7 1-1 1.6l-1.2 1.8-.9 1.2c-.4.6-.9 1.2-1.3 1.7-6.8 8.6-15.6 15.4-25.5 19.9-.3.2-.7.3-1 .4l-.4.2c-1.4.6-2.8 1.1-4.2 1.6l-1.1.4c-5.6 1.8-11.4 3-17.4 3.4l-1.1.1c-.8 0-1.5.1-2.3.1 0-.1-.3-.1-.7-.1.1 0 0 0 0 0zm49.6-96.6c-1.3 0-3.1-.8-3.8-1.8-6-7.2-13.8-12.9-22.5-16.6-.3-.1-.6-.3-1-.4l-.4-.2c-.4-.2-.9-.3-1.3-.5-.3-.1-.7-.3-1.1-.4l-1-.3c-4.7-1.5-9.6-2.5-14.6-2.8-.8 0-1.6-.1-2.3-.1h-4.5c-4.9.3-9.7 1.1-14.3 2.4-.7.2-1.4.4-2.1.7-.5.2-.9.4-1.4.5-.3.1-.7.4-1 .4h-.4l-.3.2c-9.1 3.6-17.2 9.5-23.5 17-.8.9-2.6 1.7-3.8 1.7h-8.8c.3-.5.7-1.1 1-1.6l1.2-1.8.2-.3.6-.9c.4-.6.9-1.1 1.3-1.7 6.4-8.1 14.7-14.8 24-19.2l.3-.1 1.2-.6c.8-.4 1.6-.7 2.4-1l.2-.1c.3-.1.5-.2.8-.3l1.1-.4s.9-.3 1.1-.4c.3-.1.7-.2 1.1-.4 5.7-1.9 11.5-3 17.5-3.4l1.1-.1h4.3c.8 0 1.6 0 2.3.1l1.2.1c5.9.4 11.7 1.5 17.4 3.4l1.1.4c1.4.5 2.7 1 4.2 1.6l.4.2c.3.1.6.3.9.4 9.9 4.5 18.7 11.4 25.5 19.9.5.6.9 1.1 1.3 1.7l.9 1.2 1.2 1.8c.3.5.7 1 1 1.6h-8.7z" class="st1"/><path d="M477.4 45.4l13.3-18.9c1.5-2.1 1.5-1.6 0-3.7L477.4 3.7h9.4c1.1 0 2.9 1 3.7 2.1L502 23c.6.8.6 2.3 0 3.1l-11.5 17.3c-.8 1-2.5 2-3.6 2h-9.5zM151 6.6h29.1v4.9h-23.8v12.2h22v4.6h-22V42h24.3v4.8H151V6.6zm40.2 40.2h-6.5l14.2-20.6-13.3-19.6h6.8L202.5 22l10.1-15.4h6.5l-13.3 19.6 14 20.6h-6.7l-10.7-16.5-11.2 16.5zm34.5-40.2h18c3.6 0 6.4 1 8.6 3 2.2 2 3.3 4.8 3.3 8.5 0 3.1-1 5.9-2.9 8.2-2 2.3-4.9 3.5-9 3.5h-12.5v17h-5.4V6.6zm21.1 5.5c-1.2-.6-2.8-.8-4.9-.8h-10.8v13.9h10.8c2.4 0 4.4-.5 5.9-1.6 1.5-1 2.3-2.9 2.3-5.5 0-2.9-1.1-4.9-3.3-6zm16.3-5.5h29.1v4.9h-23.8v12.2h22v4.6h-22V42h24.3v4.8h-29.6V6.6zm37.4 0h18.3c3 0 5.5.4 7.4 1.3 3.7 1.7 5.6 4.9 5.6 9.5 0 2.4-.5 4.4-1.5 5.9s-2.4 2.8-4.2 3.7c1.6.6 2.7 1.5 3.5 2.5.8 1 1.2 2.7 1.3 5.1l.2 5.4c.1 1.5.2 2.7.4 3.4.3 1.3.9 2.1 1.8 2.5v.9h-6.7c-.2-.3-.3-.8-.4-1.3-.1-.5-.2-1.6-.3-3.2l-.3-6.7c-.1-2.6-1.1-4.4-2.8-5.3-1-.5-2.6-.7-4.8-.7h-12v17.2h-5.4V6.6zM318.2 25c2.5 0 4.4-.5 5.9-1.5 1.4-1 2.2-2.9 2.2-5.5 0-2.9-1-4.8-3-5.9-1.1-.5-2.5-.8-4.3-.8h-13V25h12.2zm50.3-18.4v4.8H355v35.4h-5.5V11.4H336V6.6h32.5z" class="st2"/><path d="M384.4 33.7c0 1.7.3 3.1.8 4.2 1 2.1 2.9 3.1 5.5 3.1 1.6 0 3.1-.6 4.3-1.7 1.2-1.1 1.8-2.7 1.8-4.8 0-2.8-1.1-4.7-3.4-5.6-1.3-.5-3.3-.8-6.1-.8v-6c2.7 0 4.6-.3 5.7-.8 1.8-.8 2.8-2.5 2.8-5 0-1.6-.5-2.9-1.4-4-.9-1-2.3-1.5-4-1.5-2 0-3.4.6-4.3 1.9-.9 1.2-1.4 2.9-1.3 5H377c.1-2.1.4-4.1 1.1-6 .7-1.7 1.8-3.2 3.2-4.6 1.1-1 2.4-1.8 3.9-2.3 1.5-.5 3.3-.8 5.5-.8 4.1 0 7.3 1.1 9.8 3.1 2.5 2.1 3.7 4.9 3.7 8.5 0 2.5-.7 4.6-2.2 6.3-.9 1.1-1.9 1.8-2.9 2.2.8 0 1.9.7 3.3 2 2.1 2 3.2 4.7 3.2 8.1 0 3.6-1.2 6.8-3.7 9.5s-6.2 4.1-11 4.1c-6 0-10.2-2-12.5-5.9-1.2-2.1-1.9-4.8-2-8.2h8zM428.5 15c0-.7-.3-1.4-.8-2.3-.9-1.3-2.3-2-4.1-2-2.7 0-4.6 1.5-5.8 4.6-.6 1.7-1.1 4.2-1.3 7.4 1-1.2 2.2-2.1 3.6-2.7 1.4-.6 2.9-.8 4.7-.8 3.8 0 6.9 1.3 9.3 3.8s3.6 5.8 3.6 9.8c0 4-1.2 7.5-3.5 10.5-2.4 3-6 4.5-11 4.5-5.4 0-9.3-2.2-11.8-6.7-2-3.5-3-8-3-13.5 0-3.2.1-5.9.4-7.9.5-3.6 1.4-6.6 2.8-9 1.2-2.1 2.8-3.7 4.8-5 2-1.2 4.3-1.9 7-1.9 3.9 0 7.1 1 9.4 3 2.3 2 3.7 4.7 4 8.1h-8.3zm-9.9 23.9c1.2 1.4 2.8 2.2 4.7 2.2 1.9 0 3.3-.7 4.4-2.1 1.1-1.4 1.6-3.2 1.6-5.4 0-2.5-.6-4.4-1.8-5.7-1.2-1.3-2.7-2-4.5-2-1.4 0-2.7.4-3.8 1.3-1.6 1.3-2.5 3.3-2.5 6.2 0 2.2.7 4.1 1.9 5.5zm47.7-29.2c2.2 3.8 3.3 9.2 3.3 16.2s-1.1 12.4-3.3 16.2c-2.2 3.8-6 5.7-11.4 5.7s-9.2-1.9-11.4-5.7c-2.2-3.8-3.3-9.2-3.3-16.2s1.1-12.4 3.3-16.2c2.2-3.8 6-5.7 11.4-5.7s9.2 1.9 11.4 5.7zM450 37.1c.8 2.6 2.4 3.9 4.9 3.9s4.1-1.3 4.9-3.9c.8-2.6 1.2-6.3 1.2-11.2 0-5.1-.4-8.9-1.2-11.4-.8-2.5-2.4-3.7-4.9-3.7s-4.1 1.2-4.9 3.7c-.8 2.5-1.2 6.2-1.2 11.4 0 4.9.4 8.6 1.2 11.2z" class="st1"/></svg>
